<svg xmlns="http://www.w3.org/2000/svg" width="36" height="36" viewBox="0 0 36 36"><g transform="translate(-1288 -268)"><g transform="translate(1288 268)" fill="#b52a69" stroke="#b52a69" stroke-width="1"><circle cx="18" cy="18" r="18" stroke="none"/><circle cx="18" cy="18" r="17.5" fill="none"/></g><path d="M33.4,22.59H22.767a.789.789,0,0,0-.708.85v4.24H19.942a.683.683,0,0,0-.589.378L17.229,31.9a.975.975,0,0,0-.119.471v3.828a.789.789,0,0,0,.708.85h.039A2.665,2.665,0,0,0,20.3,39.59a2.665,2.665,0,0,0,2.444-2.545h4.318a2.665,2.665,0,0,0,2.444,2.545,2.665,2.665,0,0,0,2.444-2.545H33.4a.789.789,0,0,0,.708-.85V23.44A.789.789,0,0,0,33.4,22.59ZM18.526,32.624l1.809-3.232h1.734v5.146c-.028-.034-.059-.056-.088-.087a3.043,3.043,0,0,0-.215-.217l-.15-.124a1.923,1.923,0,0,0-.258-.161c-.1-.05-.1-.062-.16-.09a2.028,2.028,0,0,0-.295-.112c-.049-.016-.1-.034-.147-.047a1.984,1.984,0,0,0-.47-.059,1.954,1.954,0,0,0-.468.059.557.557,0,0,0-.15.047,2,2,0,0,0-.292.112,1.8,1.8,0,0,0-.165.093,2.093,2.093,0,0,0-.24.158c-.054.04-.106.084-.16.13a2.655,2.655,0,0,0-.2.2c-.062.068-.067.062-.1.1ZM20.3,37.9a1.186,1.186,0,0,1-1.062-1.275,1.883,1.883,0,0,1,.021-.257,1.042,1.042,0,0,1,2.083,0,1.7,1.7,0,0,1,.021.261A1.185,1.185,0,0,1,20.3,37.894Zm9.211,0a1.165,1.165,0,0,1-1.068-1.181,1.246,1.246,0,0,1,.907-1.361,1.1,1.1,0,0,1,1.195.991,1.7,1.7,0,0,1,.023.261,1.19,1.19,0,0,1-1.057,1.287Zm2.238-2.553c-.023-.059-.054-.115-.083-.174s-.039-.093-.062-.136a3.469,3.469,0,0,0-.2-.31.523.523,0,0,1-.031-.05,2.737,2.737,0,0,0-.279-.31l-.085-.078a2.067,2.067,0,0,0-.233-.189l-.119-.078a1.775,1.775,0,0,0-.233-.13,1.226,1.226,0,0,0-.132-.059,2.008,2.008,0,0,0-.258-.087l-.124-.031a1.859,1.859,0,0,0-.8,0l-.121.031a2.048,2.048,0,0,0-.258.087c-.044,0-.085.037-.129.056a2.4,2.4,0,0,0-.24.136l-.111.071a2.42,2.42,0,0,0-.258.208l-.065.056a2.984,2.984,0,0,0-.517.717l-.044.093c-.031.068-.067.133-.093.2H23.486V24.29h9.208v2.553H27.734a.864.864,0,0,0,0,1.7h4.959v6.8Z" transform="translate(1279.891 254.41)" fill="#eee2ef"/></g></svg>