<svg xmlns="http://www.w3.org/2000/svg" width="22" height="22" viewBox="0 0 22 22"><path d="M18.777,5.543h-.6V3.223A3.226,3.226,0,0,0,14.953,0H7.047A3.226,3.226,0,0,0,3.824,3.223v2.32h-.6A3.226,3.226,0,0,0,0,8.766v5.156a3.226,3.226,0,0,0,3.223,3.223h.6v2.922A1.936,1.936,0,0,0,5.758,22H16.242a1.936,1.936,0,0,0,1.934-1.934V17.145h.6A3.226,3.226,0,0,0,22,13.922V8.766A3.226,3.226,0,0,0,18.777,5.543ZM5.113,3.223A1.936,1.936,0,0,1,7.047,1.289h7.906a1.936,1.936,0,0,1,1.934,1.934v2.32H5.113ZM16.887,20.066a.645.645,0,0,1-.645.645H5.758a.645.645,0,0,1-.645-.645V13.707H16.887Zm3.824-6.145a1.936,1.936,0,0,1-1.934,1.934h-.6V13.707h.387a.645.645,0,0,0,0-1.289H3.438a.645.645,0,0,0,0,1.289h.387v2.148h-.6a1.936,1.936,0,0,1-1.934-1.934V8.766A1.936,1.936,0,0,1,3.223,6.832H18.777a1.936,1.936,0,0,1,1.934,1.934Z" fill="#b52a69"/><path d="M205.082,353h-3.437a.645.645,0,0,0,0,1.289h3.438a.645.645,0,0,0,0-1.289Z" transform="translate(-192.363 -337.832)" fill="#b52a69"/><path d="M205.082,417h-3.437a.645.645,0,0,0,0,1.289h3.438a.645.645,0,0,0,0-1.289Z" transform="translate(-192.363 -399.082)" fill="#b52a69"/><path d="M67.707,193H65.645a.645.645,0,0,0,0,1.289h2.063a.645.645,0,0,0,0-1.289Z" transform="translate(-62.207 -184.707)" fill="#b52a69"/></svg>