<svg xmlns="http://www.w3.org/2000/svg" width="92.086" height="92.064" viewBox="0 0 92.086 92.064"><g transform="translate(23.764 22.279)"><path d="M80.866,16H21.456A4.376,4.376,0,0,0,17,20.456V69.469a4.376,4.376,0,0,0,4.456,4.456H60.964L72.4,85.362a1.486,1.486,0,0,0,2.525-1.04v-10.4h5.941a4.376,4.376,0,0,0,4.456-4.456V20.456A4.376,4.376,0,0,0,80.866,16ZM71.657,37.239,47.745,61.152a1.436,1.436,0,0,1-2.079,0l-15-15a1.436,1.436,0,0,1,0-2.079L36.9,37.833a1.436,1.436,0,0,1,2.079,0l7.723,7.723L63.34,28.922a1.436,1.436,0,0,1,2.079,0l6.238,6.238a1.433,1.433,0,0,1,0,2.079Z" transform="translate(-17 -16)" fill="#eee2ef"/></g><path d="M58.043,1H16.456A4.376,4.376,0,0,0,12,5.456V29.22a4.376,4.376,0,0,0,4.456,4.456H28.338v10.4a1.486,1.486,0,0,0,2.525,1.04L42.3,33.676H58.043A4.376,4.376,0,0,0,62.5,29.22V5.456A4.376,4.376,0,0,0,58.043,1Zm1.485,28.22a1.4,1.4,0,0,1-1.485,1.485H41.705a1.348,1.348,0,0,0-1.04.446l-9.357,9.357V32.19a1.4,1.4,0,0,0-1.485-1.485H16.456a1.4,1.4,0,0,1-1.485-1.485V5.456a1.4,1.4,0,0,1,1.485-1.485H58.043a1.4,1.4,0,0,1,1.485,1.485Z" transform="translate(4.338 -1)" fill="#b52a69"/><path d="M51.161,6H18.485A1.4,1.4,0,0,0,17,7.485a1.4,1.4,0,0,0,1.485,1.485H51.161a1.4,1.4,0,0,0,1.485-1.485A1.4,1.4,0,0,0,51.161,6Z" transform="translate(6.764 1.426)" fill="#b52a69"/><path d="M51.161,11H18.485A1.4,1.4,0,0,0,17,12.485a1.4,1.4,0,0,0,1.485,1.485H51.161a1.4,1.4,0,0,0,1.485-1.485A1.4,1.4,0,0,0,51.161,11Z" transform="translate(6.764 3.853)" fill="#b52a69"/><path d="M46.308,16H28.485a1.485,1.485,0,0,0,0,2.971H46.308a1.485,1.485,0,0,0,0-2.971Z" transform="translate(11.617 6.279)" fill="#b52a69"/><path d="M26.4,43.863A10.211,10.211,0,0,0,30.705,35.4a10.4,10.4,0,1,0-20.794,0,10.832,10.832,0,0,0,4.307,8.466A19.227,19.227,0,0,0,1,62.131a1.4,1.4,0,0,0,1.485,1.485H38.131a1.4,1.4,0,0,0,1.485-1.485A19.227,19.227,0,0,0,26.4,43.863ZM12.882,35.4a7.426,7.426,0,1,1,7.426,7.426A7.354,7.354,0,0,1,12.882,35.4ZM3.971,60.646a16.412,16.412,0,0,1,32.676,0Z" transform="translate(-1 10.646)" fill="#b52a69"/></svg>