<svg xmlns="http://www.w3.org/2000/svg" width="21.996" height="22" viewBox="0 0 21.996 22"><g transform="translate(-0.449)"><path d="M22.389,6.468A8.039,8.039,0,0,0,21.878,3.8,5.636,5.636,0,0,0,18.659.58,8.06,8.06,0,0,0,15.99.069C14.812.013,14.438,0,11.451,0S8.091.013,6.917.064A8.041,8.041,0,0,0,4.249.576,5.368,5.368,0,0,0,2.3,1.848,5.417,5.417,0,0,0,1.029,3.795,8.06,8.06,0,0,0,.518,6.464C.462,7.641.449,8.015.449,11s.013,3.361.064,4.534a8.038,8.038,0,0,0,.512,2.669,5.635,5.635,0,0,0,3.219,3.219,8.061,8.061,0,0,0,2.669.511c1.173.052,1.547.064,4.534.064s3.361-.013,4.534-.064a8.037,8.037,0,0,0,2.669-.511,5.627,5.627,0,0,0,3.219-3.219,8.066,8.066,0,0,0,.511-2.669c.052-1.173.064-1.547.064-4.534S22.441,7.641,22.389,6.468ZM20.408,15.45a6.03,6.03,0,0,1-.378,2.041,3.649,3.649,0,0,1-2.089,2.089,6.051,6.051,0,0,1-2.041.378c-1.16.052-1.508.064-4.444.064s-3.288-.013-4.444-.064a6.027,6.027,0,0,1-2.041-.378,3.385,3.385,0,0,1-1.263-.821A3.42,3.42,0,0,1,2.886,17.5a6.052,6.052,0,0,1-.378-2.041c-.052-1.16-.064-1.509-.064-4.444s.013-3.288.064-4.444a6.027,6.027,0,0,1,.378-2.041,3.344,3.344,0,0,1,.825-1.264,3.415,3.415,0,0,1,1.263-.821,6.056,6.056,0,0,1,2.041-.378C8.177,2.011,8.525,2,11.46,2s3.288.013,4.444.064a6.03,6.03,0,0,1,2.041.378,3.383,3.383,0,0,1,1.263.821,3.42,3.42,0,0,1,.821,1.264,6.055,6.055,0,0,1,.378,2.041c.052,1.16.064,1.508.064,4.444S20.46,14.29,20.408,15.45Zm0,0" fill="#fff"/><path d="M130.6,124.5a5.647,5.647,0,1,0,5.647,5.647A5.649,5.649,0,0,0,130.6,124.5Zm0,9.311a3.663,3.663,0,1,1,3.663-3.663A3.664,3.664,0,0,1,130.6,133.811Zm0,0" transform="translate(-119.145 -119.145)" fill="#fff"/><path d="M365.09,89.922a1.32,1.32,0,1,1-1.321-1.32A1.321,1.321,0,0,1,365.09,89.922Zm0,0" transform="translate(-346.444 -84.794)" fill="#fff"/></g></svg>