<svg xmlns="http://www.w3.org/2000/svg" width="64.867" height="41.7" viewBox="0 0 64.867 41.7"><g transform="translate(0 -85.333)"><g transform="translate(0 85.333)"><g transform="translate(0 0)"><path d="M63.768,90.312a2.317,2.317,0,0,0-2.254-.1L46.333,97.8V92.283a6.95,6.95,0,0,0-6.95-6.95H6.95A6.95,6.95,0,0,0,0,92.283v27.8a6.95,6.95,0,0,0,6.95,6.95H39.383a6.95,6.95,0,0,0,6.95-6.95v-5.518l15.181,7.6a2.317,2.317,0,0,0,3.352-2.085v-27.8A2.316,2.316,0,0,0,63.768,90.312ZM41.7,120.083a2.317,2.317,0,0,1-2.317,2.317H6.95a2.317,2.317,0,0,1-2.317-2.317v-27.8A2.317,2.317,0,0,1,6.95,89.966H39.383A2.317,2.317,0,0,1,41.7,92.283v27.8Zm18.533-3.748-13.9-6.95v-6.4l13.9-6.95Z" transform="translate(0 -85.333)" fill="#fff"/></g></g><g transform="translate(13.9 96.916)"><g transform="translate(0 0)"><path d="M111.667,170.667a9.267,9.267,0,1,0,9.267,9.267A9.267,9.267,0,0,0,111.667,170.667Zm0,13.9a4.633,4.633,0,1,1,4.633-4.633A4.633,4.633,0,0,1,111.667,184.567Z" transform="translate(-102.4 -170.667)" fill="#fff"/></g></g></g></svg>