<svg xmlns="http://www.w3.org/2000/svg" width="31.261" height="22" viewBox="0 0 31.261 22"><g transform="translate(0 -45.917)"><path d="M30.042,47.806c-1.128-1.341-3.212-1.889-7.191-1.889H8.409c-4.07,0-6.188.582-7.313,2.011C0,49.32,0,51.372,0,54.211v5.412c0,5.5,1.3,8.294,8.409,8.294H22.852c3.45,0,5.362-.483,6.6-1.667,1.268-1.214,1.81-3.2,1.81-6.627V54.211C31.261,51.217,31.176,49.153,30.042,47.806Zm-9.973,9.859-6.558,3.428a1.008,1.008,0,0,1-1.476-.894V53.365a1.008,1.008,0,0,1,1.473-.895l6.558,3.406a1.008,1.008,0,0,1,0,1.789Z" transform="translate(0 0)" fill="#fff"/></g></svg>