<svg xmlns="http://www.w3.org/2000/svg" width="46.471" height="3.701" viewBox="0 0 46.471 3.701"><g transform="translate(0 0)"><path d="M45.684,110.941a3.875,3.875,0,0,1-2.675-1.035,5.772,5.772,0,0,0-7.479,0,3.972,3.972,0,0,1-5.349,0,5.772,5.772,0,0,0-7.478,0,3.972,3.972,0,0,1-5.349,0,5.54,5.54,0,0,0-3.739-1.375,5.541,5.541,0,0,0-3.739,1.375A3.874,3.874,0,0,1,7.2,110.941a3.874,3.874,0,0,1-2.674-1.035,5.541,5.541,0,0,0-3.739-1.375.658.658,0,1,0,0,1.291,3.874,3.874,0,0,1,2.674,1.035A5.541,5.541,0,0,0,7.2,112.232a5.541,5.541,0,0,0,3.739-1.375,3.972,3.972,0,0,1,5.349,0,5.772,5.772,0,0,0,7.478,0,3.972,3.972,0,0,1,5.349,0,5.772,5.772,0,0,0,7.478,0,3.973,3.973,0,0,1,5.349,0,5.541,5.541,0,0,0,3.739,1.375.658.658,0,1,0,0-1.291Z" transform="translate(-0.001 -108.531)" fill="#eee2ef"/></g></svg>