<svg xmlns="http://www.w3.org/2000/svg" width="92.086" height="87.024" viewBox="0 0 92.086 87.024"><g transform="translate(-1 -2.705)"><path d="M51.368,51.441A13.368,13.368,0,1,0,38,38.073,13.368,13.368,0,0,0,51.368,51.441ZM45.862,37.026a1.485,1.485,0,0,1,2.1,0l3,3,3.534-7.069a1.486,1.486,0,0,1,2.659,1.329L52.7,43.2a1.485,1.485,0,0,1-2.376.386l-4.456-4.456a1.485,1.485,0,0,1,0-2.1Z" transform="translate(17.956 10.677)" fill="#eee2ef"/><path d="M69.917,59.764a23.765,23.765,0,1,0-30.309,0L32.233,78.216a2.971,2.971,0,0,0,3.572,3.958l6.93-1.98,3.893,1.947a2.971,2.971,0,0,0,4.147-1.719l3.991-11.972,3.881,11.642a2.971,2.971,0,0,0,4.6,1.436l3.6-2.7,6.311,2.7A2.971,2.971,0,0,0,77.1,77.7ZM54.767,25.137A16.338,16.338,0,1,1,38.428,41.476,16.338,16.338,0,0,1,54.767,25.137Zm-7.5,43.543a1.487,1.487,0,0,1-2.822-.94l1.416-4.247a23.552,23.552,0,0,0,2.822.927Zm16.885.939a1.485,1.485,0,0,1-1.877-.939l-1.414-4.26a23.554,23.554,0,0,0,2.822-.927l1.415,4.247a1.485,1.485,0,0,1-.946,1.879Z" transform="translate(14.557 7.274)" fill="#eee2ef"/><g transform="translate(1 2.705)"><path d="M72.295,2.7H5.456A4.456,4.456,0,0,0,1,7.161v47.53a4.456,4.456,0,0,0,4.456,4.456H72.295a4.456,4.456,0,0,0,4.456-4.456V7.161a4.456,4.456,0,0,0-4.456-4.456ZM73.78,54.691a1.485,1.485,0,0,1-1.485,1.485H5.456a1.485,1.485,0,0,1-1.485-1.485V7.161A1.485,1.485,0,0,1,5.456,5.676H72.295A1.485,1.485,0,0,1,73.78,7.161Z" transform="translate(-1 -2.705)" fill="#b52a69"/><path d="M21.853,11.7A14.853,14.853,0,1,0,36.706,26.558,14.853,14.853,0,0,0,21.853,11.7Zm11.78,13.368H27.766a28.432,28.432,0,0,0-1.808-9.655A11.9,11.9,0,0,1,33.633,25.073ZM21.853,38.441c-.713,0-2.685-3.565-2.942-10.4H24.8C24.539,34.868,22.566,38.441,21.853,38.441ZM18.911,25.073c.257-6.832,2.228-10.4,2.942-10.4s2.685,3.565,2.942,10.4Zm-1.163-9.655a28.432,28.432,0,0,0-1.808,9.655H10.073a11.9,11.9,0,0,1,7.675-9.652ZM10.073,28.043H15.94A28.43,28.43,0,0,0,17.748,37.7a11.9,11.9,0,0,1-7.675-9.655ZM25.958,37.7a28.43,28.43,0,0,0,1.808-9.655h5.867a11.9,11.9,0,0,1-7.675,9.647Z" transform="translate(1.912 1.663)" fill="#b52a69"/><path d="M51.309,14.705H33.485a1.485,1.485,0,1,0,0,2.971H51.309a1.485,1.485,0,1,0,0-2.971Z" transform="translate(14.045 3.119)" fill="#b52a69"/><path d="M51.309,20.7H33.485a1.485,1.485,0,1,0,0,2.971H51.309a1.485,1.485,0,1,0,0-2.971Z" transform="translate(14.045 6.031)" fill="#b52a69"/><path d="M51.309,26.705H33.485a1.485,1.485,0,1,0,0,2.971H51.309a1.485,1.485,0,1,0,0-2.971Z" transform="translate(14.045 8.942)" fill="#b52a69"/></g></g></svg>