<svg xmlns="http://www.w3.org/2000/svg" width="18.783" height="24" viewBox="0 0 18.783 24"><path d="M18.778,20.746,17.434,5.271a.653.653,0,0,0-.643-.6H14.027A4.691,4.691,0,0,0,9.391,0,4.691,4.691,0,0,0,4.756,4.667H1.991a.649.649,0,0,0-.643.6L0,20.746c0,.02,0,.039,0,.059A3.374,3.374,0,0,0,3.522,24H15.26a3.374,3.374,0,0,0,3.523-3.195.239.239,0,0,0,0-.059ZM9.391,1.325a3.38,3.38,0,0,1,3.34,3.342H6.051a3.38,3.38,0,0,1,3.34-3.342Zm5.869,21.35H3.522A2.081,2.081,0,0,1,1.3,20.835L2.582,6H4.751V8.01a.648.648,0,1,0,1.3,0V6h6.685V8.01a.648.648,0,1,0,1.3,0V6H16.2l1.013,11.648.277,3.189a2.084,2.084,0,0,1-2.227,1.84Zm0,0" transform="translate(0)" fill="#fff"/></svg>