<svg xmlns="http://www.w3.org/2000/svg" width="27.5" height="22" viewBox="0 0 27.5 22"><g transform="translate(-235 -2874)"><path d="M27.5,2.6a11.414,11.414,0,0,1-3.24.874A5.6,5.6,0,0,0,26.742.406a11.45,11.45,0,0,1-3.583,1.347A5.676,5.676,0,0,0,19.039,0,5.6,5.6,0,0,0,13.4,5.553a5.468,5.468,0,0,0,.146,1.266,16.1,16.1,0,0,1-11.629-5.8,5.454,5.454,0,0,0-.764,2.793A5.531,5.531,0,0,0,3.659,8.431a5.68,5.68,0,0,1-2.556-.7v.071a5.58,5.58,0,0,0,4.526,5.445,5.723,5.723,0,0,1-2.548.1A5.64,5.64,0,0,0,8.354,17.2a11.43,11.43,0,0,1-7.008,2.376A11.4,11.4,0,0,1,0,19.5,16.15,16.15,0,0,0,8.647,22a16.078,16.078,0,0,0,10.132-3.447A16,16,0,0,0,24.7,6.2c0-.241-.006-.479-.016-.718A11.355,11.355,0,0,0,27.5,2.6Zm0,0" transform="translate(235 2874)" fill="#b52a69"/></g></svg>