<svg xmlns="http://www.w3.org/2000/svg" width="95.997" height="96" viewBox="0 0 95.997 96"><path d="M88.275,25.473,52.665,13.087a1.523,1.523,0,0,0-1.016,0L16.04,25.473a1.548,1.548,0,0,0-1.031,1.616l1.508,15.08c3.547,35.478,34.393,47.608,34.949,48.088a1.548,1.548,0,0,0,1.384,0C54.385,89.01,84.087,79.3,87.46,45.574l1.855-18.484a1.548,1.548,0,0,0-1.04-1.616Zm-17.882,18L48.023,61.648a3.1,3.1,0,0,1-4.142-.214l-10.2-10.192a3.1,3.1,0,0,1,4.383-4.383l8.223,8.223,20.2-16.411a3.1,3.1,0,0,1,3.9,4.8Z" transform="translate(6.674 5.579)" fill="#eee2ef"/><path d="M74.4,59.833,65.539,50.97a32.511,32.511,0,1,0-54.771,0L1.907,59.833a3.1,3.1,0,0,0,1.5,5.207l7.664,1.75,1.75,7.664a3.1,3.1,0,0,0,5.208,1.5l11.2-11.2a31.872,31.872,0,0,0,17.844,0l11.208,11.2a3.1,3.1,0,0,0,5.207-1.5l1.75-7.667L72.9,65.039a3.1,3.1,0,0,0,1.5-5.205ZM15.841,73.768,14.093,66.1a3.12,3.12,0,0,0-2.332-2.322L4.1,62.021l8.491-8.492A32.649,32.649,0,0,0,25.971,63.636Zm-7.1-40.254A29.417,29.417,0,1,1,38.157,62.93,29.417,29.417,0,0,1,8.741,33.513Zm55.8,30.256a3.117,3.117,0,0,0-2.322,2.322L60.47,73.768,50.339,63.637A32.635,32.635,0,0,0,63.723,53.531l8.5,8.491Z" transform="translate(-1.001 -1)" fill="#b52a69"/><path d="M44.981,19.844,39.144,19l-2.61-5.29a5.633,5.633,0,0,0-10.1,0L23.824,19l-5.838.848a5.629,5.629,0,0,0-3.12,9.6l4.225,4.118-1,5.815a5.633,5.633,0,0,0,8.169,5.934l5.224-2.742,5.221,2.745a5.631,5.631,0,0,0,8.17-5.934l-1-5.815L48.1,29.446a5.631,5.631,0,0,0-3.118-9.6Zm.96,7.385-4.8,4.687a1.548,1.548,0,0,0-.444,1.37L41.832,39.9a2.533,2.533,0,0,1-3.688,2.671L32.2,39.451a1.548,1.548,0,0,0-1.441,0l-5.931,3.123A2.531,2.531,0,0,1,21.154,39.9l1.135-6.617a1.548,1.548,0,0,0-.446-1.37l-4.8-4.687a2.531,2.531,0,0,1,1.4-4.323l6.645-.965a1.548,1.548,0,0,0,1.166-.847l2.971-6.02a2.531,2.531,0,0,1,4.544,0l2.971,6.02a1.548,1.548,0,0,0,1.166.847l6.644.965a2.533,2.533,0,0,1,1.389,4.323Z" transform="translate(5.669 4.246)" fill="#b52a69"/></svg>