<svg xmlns="http://www.w3.org/2000/svg" width="92.488" height="94.005" viewBox="0 0 92.488 94.005"><g transform="translate(-1.501 -1)"><circle cx="6" cy="6" r="6" transform="translate(54.5 56)" fill="#eee2ef"/><path d="M51.857,19A33.357,33.357,0,1,0,85.213,52.357,33.357,33.357,0,0,0,51.857,19ZM36.846,69.5a1.516,1.516,0,0,1-2.138,0A24.259,24.259,0,0,1,51.857,28.1a1.516,1.516,0,0,1,1.349,2.2l-4.549,9.1a1.516,1.516,0,1,1-2.7-1.365l3.366-6.747A21.227,21.227,0,0,0,36.846,67.367a1.516,1.516,0,0,1,0,2.138Zm5.913-17.148a9.1,9.1,0,1,1,9.1,9.1A9.1,9.1,0,0,1,42.759,52.357ZM69,69.5a24.047,24.047,0,0,1-17.148,7.111,1.516,1.516,0,0,1-1.349-2.2l4.549-9.1a1.516,1.516,0,0,1,2.7,1.365l-3.366,6.747A21.227,21.227,0,0,0,66.867,37.346,1.516,1.516,0,0,1,69,35.208a24.259,24.259,0,0,1,0,34.3Z" transform="translate(8.775 9.292)" fill="#eee2ef"/><path d="M42.437,76.81H32.491A4.882,4.882,0,0,1,27.624,72V66.955L18.178,61.5l-4.4,2.471a4.867,4.867,0,0,1-6.6-1.8L2.152,53.552A4.882,4.882,0,0,1,3.88,46.926l4.336-2.562V33.447L3.88,30.885a4.882,4.882,0,0,1-1.728-6.626l4.973-8.612a4.867,4.867,0,0,1,6.6-1.8l4.4,2.471,9.446-5.458V5.806A4.882,4.882,0,0,1,32.491,1h9.946A4.882,4.882,0,0,1,47.3,5.806v5.049l9.537,5.458,4.4-2.471a4.882,4.882,0,0,1,6.611,1.8l4.973,8.612a4.9,4.9,0,0,1-1.744,6.626L66.7,33.447V44.364l4.336,2.562a4.9,4.9,0,0,1,1.744,6.626L67.8,62.164a4.882,4.882,0,0,1-6.611,1.8L56.841,61.5,47.41,66.955V72a4.882,4.882,0,0,1-4.973,4.806Zm-23.5-18.361,10.932,6.307a1.516,1.516,0,0,1,.758,1.3l.076,5.9a1.835,1.835,0,0,0,1.789,1.819h9.946a1.85,1.85,0,0,0,1.835-1.819v-5.9a1.516,1.516,0,0,1,.758-1.3l10.947-6.307a1.516,1.516,0,0,1,1.516,0l5.14,2.9a1.85,1.85,0,0,0,2.5-.682l4.973-8.612a1.85,1.85,0,0,0-.622-2.532l-5.064-3.032a1.516,1.516,0,0,1-.743-1.3v-12.6a1.516,1.516,0,0,1,.743-1.258L69.5,28.292a1.85,1.85,0,0,0,.667-2.5L65.18,17.163a1.85,1.85,0,0,0-2.5-.682l-5.14,2.9a1.516,1.516,0,0,1-1.516,0L45.091,13.13a1.516,1.516,0,0,1-.758-1.3v-5.9a1.85,1.85,0,0,0-1.9-1.9H32.491a1.835,1.835,0,0,0-1.835,1.82l-.076,5.9a1.516,1.516,0,0,1-.758,1.3L18.936,19.361a1.516,1.516,0,0,1-1.516,0l-5.155-2.9a1.835,1.835,0,0,0-2.487.682l-5,8.627a1.85,1.85,0,0,0,.652,2.517l5.079,3.032a1.516,1.516,0,0,1,.743,1.3V45.273a1.516,1.516,0,0,1-.743,1.3l-5.08,2.942a1.85,1.85,0,0,0-.652,2.5l4.973,8.612a1.835,1.835,0,0,0,2.487.682l5.185-2.881a1.516,1.516,0,0,1,1.516.015Zm18.528-5.9A13.646,13.646,0,1,1,51.11,38.905,13.646,13.646,0,0,1,37.464,52.551Zm0-24.259A10.613,10.613,0,1,0,48.078,38.905,10.613,10.613,0,0,0,37.464,28.292Z" transform="translate(0 0)" fill="#b52a69"/></g></svg>