<svg xmlns="http://www.w3.org/2000/svg" width="64" height="64" viewBox="0 0 64 64"><g transform="translate(-650 -539)"><path d="M32,0A32,32,0,1,1,0,32,32,32,0,0,1,32,0Z" transform="translate(650 539)" fill="#eee2ef"/><g transform="translate(650 539)"><path d="M45,77A32,32,0,1,1,77,45,32,32,0,0,1,45,77Zm0-57.8L19.057,45,45,70.52,70.979,45,45,19.2Z" transform="translate(-13 -13)" fill="#ef548d"/><path d="M42.8,17A25.8,25.8,0,1,0,68.6,42.8,25.8,25.8,0,0,0,42.8,17Zm6.266,30.136-7.474,4.747A4.866,4.866,0,0,1,34.2,47.547V38.055a4.865,4.865,0,0,1,7.392-4.337l7.474,4.747a5.193,5.193,0,0,1,0,8.671Z" transform="translate(-10.801 -10.801)" fill="#b52a69"/></g></g></svg>