<svg xmlns="http://www.w3.org/2000/svg" width="99.484" height="99.484" viewBox="0 0 99.484 99.484"><g transform="translate(256 346)"><g transform="translate(-256 -346)"><path d="M49.742,0A49.742,49.742,0,1,0,99.484,49.742,49.8,49.8,0,0,0,49.742,0Zm0,95.339a45.6,45.6,0,1,1,45.6-45.6A45.649,45.649,0,0,1,49.742,95.339Z" fill="#fff"/><path d="M224.21,168.315l-29.016-18.653A2.073,2.073,0,0,0,192,151.4v37.307a2.072,2.072,0,0,0,3.194,1.743L224.21,171.8a2.072,2.072,0,0,0,0-3.485Zm-28.065,16.6V155.2l23.11,14.856Z" transform="translate(-154.693 -120.315)" fill="#fff"/></g></g></svg>